<svg width="26" height="30" viewBox="0 0 26 30" fill="none" xmlns="http://www.w3.org/2000/svg">
<g clip-path="url(#clip0)">
<path d="M11.0558 26.0801L12.3442 27.3809C12.8897 27.9316 13.7719 27.9316 14.3116 27.3809L25.5938 15.9961C26.1393 15.4453 26.1393 14.5547 25.5938 14.0098L14.3116 2.61914C13.7661 2.06836 12.8839 2.06836 12.3442 2.61914L11.0558 3.91992C10.5045 4.47656 10.5161 5.38477 11.079 5.92969L18.0723 12.6563H1.39286C0.620982 12.6563 0 13.2832 0 14.0625V15.9375C0 16.7168 0.620982 17.3438 1.39286 17.3438H18.0723L11.079 24.0703C10.5103 24.6152 10.4987 25.5234 11.0558 26.0801Z" fill="#333333"/>
</g>
<defs>
<clipPath id="clip0">
<rect width="26" height="30" fill="white" transform="matrix(1 0 0 -1 0 30)"/>
</clipPath>
</defs>
</svg>
