<svg width="21" height="23" viewBox="0 0 21 23" fill="none" xmlns="http://www.w3.org/2000/svg">
<g clip-path="url(#clip0)">
<path d="M8.92969 3.00537L9.97031 2.00811C10.4109 1.58584 11.1234 1.58584 11.5594 2.00811L20.6719 10.7364C21.1125 11.1587 21.1125 11.8415 20.6719 12.2593L11.5594 20.9921C11.1187 21.4144 10.4062 21.4144 9.97031 20.9921L8.92969 19.9948C8.48437 19.5681 8.49375 18.8718 8.94844 18.454L14.5969 13.297H1.125C0.501562 13.297 0 12.8163 0 12.2188V10.7813C0 10.1839 0.501562 9.70322 1.125 9.70322H14.5969L8.94844 4.54619C8.48906 4.12842 8.47969 3.43213 8.92969 3.00537Z" fill="white"/>
</g>
<defs>
<clipPath id="clip0">
<rect width="21" height="23" fill="white"/>
</clipPath>
</defs>
</svg>
