<svg width="897" height="738" viewBox="0 0 897 738" fill="none" xmlns="http://www.w3.org/2000/svg">
<path fill-rule="evenodd" clip-rule="evenodd" d="M897 228.963C885.659 210.683 873.09 193.138 859.362 176.455L842.025 128.908L807.11 33.5347C806.603 32.2946 805.802 31.1958 804.777 30.3325C803.753 29.4692 802.534 28.8671 801.226 28.5778C799.917 28.2884 798.558 28.3203 797.265 28.6709C795.972 29.0214 794.782 29.6801 793.799 30.5906L740.771 72.7959C691.556 42.2896 637.017 20.679 579.634 9.28703C485.555 -9.38982 388.051 0.238231 299.441 36.9547C210.832 73.6711 135.094 135.828 81.7968 215.572C28.4996 295.316 0.0352173 389.069 0 484.984C0 529.353 24.2468 572.181 65.651 608.577C83.5359 656.877 111.589 700.365 147.048 738H485.068C482.05 720.606 470.161 710.418 442.949 712.512C287.429 724.476 145.018 678.344 65.651 608.577C51.4542 570.237 43.6646 528.866 43.6646 484.984C43.7634 367.922 90.3099 255.683 173.085 172.907C255.861 90.132 368.1 43.5855 485.162 43.4867C564.944 43.599 642.474 65.2845 709.953 105.305L675.536 148.854C674.575 149.811 673.871 150.995 673.49 152.296C673.109 153.598 673.063 154.975 673.357 156.299C673.65 157.623 674.274 158.851 675.17 159.869C676.066 160.888 677.204 161.663 678.48 162.123L773.854 197.08L838.295 220.577C862.75 253.249 882.468 289.032 897 326.844V228.963ZM897 654.755C885.534 684.924 870.854 712.777 853.204 738H897V654.755ZM133.275 438.665C127.732 451.639 124.91 465.61 124.981 479.718C124.914 493.811 127.737 507.768 133.275 520.728C143.976 546.081 164.151 566.255 189.504 576.957C202.491 582.43 216.442 585.25 230.535 585.25C244.628 585.25 258.579 582.43 271.566 576.957C296.942 566.289 317.127 546.104 327.795 520.728C333.268 507.741 336.088 493.79 336.088 479.697C336.088 465.604 333.268 451.653 327.795 438.665C317.094 413.313 296.919 393.138 271.566 382.436C258.579 376.963 244.628 374.144 230.535 374.144C216.442 374.144 202.491 376.963 189.504 382.436C164.173 393.172 144.01 413.335 133.275 438.665ZM191.618 496.304C189.385 491.062 188.255 485.416 188.301 479.718C188.299 474.056 189.456 468.453 191.701 463.255C193.848 458.253 196.93 453.707 200.783 449.861C204.639 446.023 209.182 442.942 214.176 440.78C219.382 438.592 224.971 437.464 230.618 437.464C236.265 437.464 241.854 438.592 247.06 440.78C257.173 445.087 265.228 453.141 269.535 463.255C271.723 468.461 272.85 474.05 272.85 479.697C272.85 485.343 271.723 490.933 269.535 496.138C265.277 506.353 257.175 514.484 246.977 518.779C241.771 520.968 236.182 522.095 230.535 522.095C224.888 522.095 219.299 520.968 214.093 518.779C203.979 514.473 195.925 506.418 191.618 496.304ZM509.171 455.584C509.52 467.786 507.051 479.904 501.956 490.997C497.436 500.4 490.654 508.536 482.218 514.674C473.394 520.922 463.457 525.426 452.942 527.943C441.148 530.81 429.044 532.203 416.907 532.09V580.026H352.675V378.953H416.907C429.044 378.84 441.148 380.233 452.942 383.1C463.451 385.635 473.384 390.138 482.218 396.369C490.645 402.518 497.425 410.651 501.956 420.047C507.067 431.178 509.536 443.341 509.171 455.584ZM416.907 477.893H419.603C427.896 477.893 434.158 475.944 437.848 472.005C441.476 467.292 443.444 461.511 443.444 455.563C443.444 449.615 441.476 443.835 437.848 439.122C434.158 435.224 428.062 433.275 419.603 433.275H416.907V477.893ZM524.265 378.954H642.736V431.741H588.497V454.05H641.865V504.142H588.497V527.363H644.892V580.109H524.265V378.954ZM662.972 378.954H715.759L771.283 456.497V378.954H834.312V580.109H781.235L726.043 502.939V580.109H663.013L662.972 378.954Z" fill="black" fill-opacity="0.04"/>
</svg>
