<svg xmlns="http://www.w3.org/2000/svg" viewBox="0 0 233.9 233.9"><defs><style>.cls-1{fill:#fff;}.cls-2{fill:#454746;}.cls-3{fill:#ed6b36;}</style></defs><title>Element 1</title><g id="Ebene_2" data-name="Ebene 2"><g id="Ebene_1-2" data-name="Ebene 1"><circle class="cls-1" cx="116.95" cy="116.95" r="116.95"/><g id="Ebene_2-2" data-name="Ebene 2"><g id="Ebene_1-2-2" data-name="Ebene 1-2"><path class="cls-2" d="M117,212.51c-25.52,0,17.15-52.66-8.31-50.7C62.06,165.4,21.43,142.49,21.43,117A95.5,95.5,0,1,1,117,212.51ZM117,30a87,87,0,0,0-87,87c0,47.94,47.19,80.66,95.13,80.66S203.9,164.94,203.9,117A87,87,0,0,0,117,30Z"/><path class="cls-3" d="M46.05,116a20.19,20.19,0,0,1,1.63-8.08,20.78,20.78,0,1,1,0,16.16A20.19,20.19,0,0,1,46.05,116Zm12.47,0a8.16,8.16,0,0,0,.65,3.27,8.38,8.38,0,1,0,0-6.51A8,8,0,0,0,58.52,116Z"/><path class="cls-3" d="M121.72,111.21a15.64,15.64,0,0,1-1.42,7,12.41,12.41,0,0,1-3.89,4.67,16.75,16.75,0,0,1-5.77,2.61,29.18,29.18,0,0,1-7.09.82v9.44H90.89V96.11h12.66a29.18,29.18,0,0,1,7.09.82,17,17,0,0,1,5.77,2.61,12.49,12.49,0,0,1,3.89,4.67A15.64,15.64,0,0,1,121.72,111.21Zm-18.17,4.39h.53a4.78,4.78,0,0,0,3.59-1.16,5.31,5.31,0,0,0,0-6.48,4.82,4.82,0,0,0-3.59-1.15h-.53Z"/><path class="cls-3" d="M124.69,96.11H148v10.4H137.34v4.4h10.52v9.86H137.34v4.58h11.11v10.39H124.69Z"/><path class="cls-3" d="M152,96.11h10.4l10.94,15.28V96.11h12.41v39.63H175.31l-10.87-15.2v15.2H152Z"/><path class="cls-3" d="M164.62,38,177.78,27.5a1.58,1.58,0,0,1,2.24,0,1.62,1.62,0,0,1,.38.59l6.88,18.78,6.54,17.92a1.64,1.64,0,0,1-1.08,2,1.61,1.61,0,0,1-1,0l-17.92-6.53L155.07,53.4a1.57,1.57,0,0,1-.95-2,1.59,1.59,0,0,1,.37-.59Z"/></g></g></g></g></svg>