<svg width="50" height="50" viewBox="0 0 50 50" fill="none" xmlns="http://www.w3.org/2000/svg">
<path d="M39.1832 14.3126C36.6449 14.3497 34.5594 16.4204 34.5074 18.9587C34.4703 20.7622 35.4352 22.3431 36.8824 23.1743V31.5314C36.8824 35.7841 33.1566 39.2501 28.5699 39.2501C24.1168 39.2501 20.4652 35.9771 20.2648 31.8876C25.668 30.7743 29.75 25.9798 29.75 20.2501V8.71653C29.75 7.87044 29.1488 7.13567 28.3176 6.97239L23.6492 6.03723C22.6844 5.84426 21.7492 6.4677 21.5563 7.43255L21.3187 8.59778C21.1258 9.56262 21.7492 10.4978 22.7141 10.6907L24.9926 11.1435V20.1536C24.9926 24.0798 21.8605 27.3306 17.9344 27.3677C13.9711 27.4048 10.7426 24.1986 10.7426 20.2427V11.1509L13.0211 10.6982C13.9859 10.5052 14.6094 9.57005 14.4164 8.6052L14.1863 7.43997C13.9934 6.47512 13.0582 5.85169 12.0934 6.04465L7.43242 6.96497C6.60117 7.13567 6 7.86301 6 8.71653V20.2501C6 25.9872 10.0895 30.7892 15.5074 31.8876C15.7004 38.597 21.482 44.0001 28.5625 44.0001C35.7617 44.0001 41.625 38.404 41.625 31.5314V23.1743C43.0426 22.3505 44 20.8216 44 19.0626C44 16.413 41.8328 14.2755 39.1832 14.3126ZM39.25 20.2501C38.5969 20.2501 38.0625 19.7158 38.0625 19.0626C38.0625 18.4095 38.5969 17.8751 39.25 17.8751C39.9031 17.8751 40.4375 18.4095 40.4375 19.0626C40.4375 19.7158 39.9031 20.2501 39.25 20.2501Z" fill="#333333"/>
</svg>
