<svg xmlns="http://www.w3.org/2000/svg" viewBox="0 0 533.27 87.56"><defs><style>.cls-1{fill:#eb5b28;}</style></defs><title>Element 1</title><g id="Ebene_2" data-name="Ebene 2"><g id="Ebene_1-2" data-name="Ebene 1"><path class="cls-1" d="M31.4,43.87,1.55,14a5.25,5.25,0,0,1,0-7.45l5-5a5.25,5.25,0,0,1,7.44,0L35.11,22.77,56.27,1.61a5.25,5.25,0,0,1,7.44,0l5,4.94a5.25,5.25,0,0,1,0,7.44L38.86,43.85a5.26,5.26,0,0,1-7.46,0ZM38.86,86,68.72,56.16a5.25,5.25,0,0,0,0-7.44l-5-5a5.25,5.25,0,0,0-7.44,0L35.13,64.9,14,43.74a5.23,5.23,0,0,0-7.44,0l-5,5a5.23,5.23,0,0,0,0,7.44L31.4,86A5.25,5.25,0,0,0,38.86,86Z"/><path class="cls-1" d="M494.4,43.87,464.55,14a5.25,5.25,0,0,1,0-7.45l5-5a5.25,5.25,0,0,1,7.44,0l21.16,21.16L519.27,1.61a5.25,5.25,0,0,1,7.44,0l5,4.94a5.25,5.25,0,0,1,0,7.44L501.86,43.85a5.26,5.26,0,0,1-7.46,0ZM501.86,86l29.86-29.86a5.25,5.25,0,0,0,0-7.44l-5-5a5.25,5.25,0,0,0-7.44,0L498.13,64.9,477,43.74a5.23,5.23,0,0,0-7.44,0l-5,5a5.23,5.23,0,0,0,0,7.44L494.4,86A5.25,5.25,0,0,0,501.86,86Z"/><path class="cls-1" d="M140.87.09a4,4,0,0,1,1.28.36,5,5,0,0,1,1.11.77,16.56,16.56,0,0,1,1.19,1.35l45.44,57.88c-.17-1.39-.27-2.77-.33-4.09s-.1-2.59-.1-3.74V6.19A6.19,6.19,0,0,1,195.65,0h1.8a6.19,6.19,0,0,1,6.19,6.19V80.36a6.19,6.19,0,0,1-6.19,6.19h-2.13a7.51,7.51,0,0,1-3.16-.6,7.19,7.19,0,0,1-2.46-2.16L144.45,26.16c.12,1.27.22,2.54.27,3.8s.09,2.39.09,3.44v47a6.19,6.19,0,0,1-6.19,6.19h-1.8a6.19,6.19,0,0,1-6.19-6.19V6.19A6.19,6.19,0,0,1,136.82,0h2.25A15,15,0,0,1,140.87.09Z"/><path class="cls-1" d="M275.71,6.19v.43a6.19,6.19,0,0,1-6.19,6.19h-26A6.19,6.19,0,0,0,237.35,19V30.62a6.19,6.19,0,0,0,6.19,6.19h17.84a6.2,6.2,0,0,1,6.19,6.2h0a6.19,6.19,0,0,1-6.19,6.19H243.54a6.19,6.19,0,0,0-6.19,6.19v12.1a6.19,6.19,0,0,0,6.19,6.19h26a6.19,6.19,0,0,1,6.19,6.19v.49a6.19,6.19,0,0,1-6.19,6.19H227.31a6.19,6.19,0,0,1-6.19-6.19V6.19A6.19,6.19,0,0,1,227.31,0h42.21A6.19,6.19,0,0,1,275.71,6.19Z"/><path class="cls-1" d="M284.13,8A6.19,6.19,0,0,1,290,0h5.13a5.94,5.94,0,0,1,3.5,1,4.9,4.9,0,0,1,1.89,2.67l14.72,51.77c.36,1.29.69,2.67,1,4.16s.59,3.09.88,4.76c.31-1.67.66-3.27,1-4.76s.79-2.87,1.23-4.16l17-51.77a5.56,5.56,0,0,1,1.89-2.51A5.26,5.26,0,0,1,341.73,0h4.73a5.79,5.79,0,0,1,3.47,1,5.22,5.22,0,0,1,1.92,2.67l16.88,51.77a66.8,66.8,0,0,1,2.27,8.5c.28-1.55.57-3.05.87-4.48s.6-2.78.93-4L387.52,3.65a4.78,4.78,0,0,1,1.86-2.57A5.6,5.6,0,0,1,392.85,0h4.22A6.19,6.19,0,0,1,403,8L380,82.19a6.19,6.19,0,0,1-5.91,4.36h-5.48a6.18,6.18,0,0,1-5.89-4.31L345.14,27.4c-.24-.75-.48-1.56-.75-2.44s-.5-1.82-.74-2.82c-.24,1-.49,1.94-.76,2.82s-.5,1.69-.74,2.44L324.44,82.26a6.19,6.19,0,0,1-5.89,4.29h-5.48a6.2,6.2,0,0,1-5.91-4.36Z"/></g></g></svg>