<svg xmlns="http://www.w3.org/2000/svg" viewBox="0 0 233.94 233.94"><defs><style>.cls-1{fill:#454746;}.cls-2{fill:#ed6b36;}</style></defs><title>Element 1</title><g id="Ebene_2" data-name="Ebene 2"><g id="Ebene_1-2" data-name="Ebene 1"><path class="cls-1" d="M117,233.94c-31.24,0,21-64.47-10.18-62.07C49.75,176.26,0,148.21,0,117A117,117,0,0,1,199.68,34.26,117,117,0,0,1,117,233.94Zm0-223.41A106.56,106.56,0,0,0,10.53,117c0,58.69,57.78,98.76,116.47,98.76s96.41-40.07,96.41-98.76A106.56,106.56,0,0,0,117,10.53Z"/><path class="cls-2" d="M30.14,115.73a24.88,24.88,0,0,1,2-9.9A25.53,25.53,0,0,1,45.71,92.27a25.45,25.45,0,0,1,19.78,0,25.47,25.47,0,0,1,13.56,13.56,25.48,25.48,0,0,1,0,19.79,25.38,25.38,0,0,1-13.56,13.56,25.45,25.45,0,0,1-19.78,0,25.44,25.44,0,0,1-13.57-13.56A24.87,24.87,0,0,1,30.14,115.73Zm15.27,0a10,10,0,0,0,.8,4,10.26,10.26,0,0,0,5.42,5.42,10.23,10.23,0,0,0,7.93,0A10.17,10.17,0,0,0,65,119.69a10.23,10.23,0,0,0,0-7.93,10.26,10.26,0,0,0-5.42-5.42,10.23,10.23,0,0,0-7.93,0,10.35,10.35,0,0,0-5.42,5.42A10,10,0,0,0,45.41,115.73Z"/><path class="cls-2" d="M122.79,109.91a19.15,19.15,0,0,1-1.74,8.54,15.21,15.21,0,0,1-4.76,5.71,20.46,20.46,0,0,1-7.06,3.2,35.4,35.4,0,0,1-8.69,1v11.56H85.05V91.43h15.49a35.4,35.4,0,0,1,8.69,1,20.65,20.65,0,0,1,7.06,3.2,15.29,15.29,0,0,1,4.76,5.71A19.17,19.17,0,0,1,122.79,109.91Zm-22.25,5.38h.65c2,0,3.51-.47,4.4-1.42a6.5,6.5,0,0,0,0-7.93c-.89-.94-2.36-1.41-4.4-1.41h-.65Z"/><path class="cls-2" d="M126.43,91.43H155v12.73H141.92v5.38h12.87v12.08H141.92v5.6h13.6v12.72H126.43Z"/><path class="cls-2" d="M159.88,91.43h12.73L186,110.13V91.43h15.2v48.51h-12.8l-13.31-18.61v18.61h-15.2Z"/><path class="cls-2" d="M175.31,20.25,191.43,7.42a1.94,1.94,0,0,1,3.2.71l8.43,23,8,21.94a2,2,0,0,1-2.5,2.5l-21.94-8-23-8.43a1.94,1.94,0,0,1-.71-3.2Z"/></g></g></svg>