<svg width="50" height="50" viewBox="0 0 50 50" fill="none" xmlns="http://www.w3.org/2000/svg">
<path d="M17.5 3.66675C20.4455 3.66675 22.8333 6.05458 22.8333 9.00008C22.8333 11.9456 20.4455 14.3334 17.5 14.3334C14.5545 14.3334 12.1667 11.9456 12.1667 9.00008C12.1667 6.05458 14.5545 3.66675 17.5 3.66675ZM21.5 15.6667H20.5533C18.6607 16.537 16.4208 16.5746 14.4467 15.6667H13.5C11.2908 15.6667 9.5 17.4576 9.5 19.6667V31.0001C9.5 32.1047 10.3954 33.0001 11.5 33.0001H12.8333V44.3334C12.8333 45.438 13.7287 46.3334 14.8333 46.3334H20.1667C21.2712 46.3334 22.1667 45.438 22.1667 44.3334V33.0001H23.5C24.6046 33.0001 25.5 32.1047 25.5 31.0001V19.6667C25.5 17.4576 23.7092 15.6667 21.5 15.6667Z" fill="#333333"/>
<path fill-rule="evenodd" clip-rule="evenodd" d="M23.561 45.7223C23.9247 46.099 24.435 46.3333 25 46.3333H26C27.1045 46.3333 28 45.4378 28 44.3333V37.3333H29V44.3333C29 45.4378 29.8954 46.3333 31 46.3333H32C33.1045 46.3333 34 45.4378 34 44.3333V27.6616L39.9141 21.7474C40.6952 20.9664 40.6952 19.7001 39.9141 18.9191C39.1331 18.138 37.8668 18.138 37.0858 18.9191L31.6715 24.3333H27.1666V30.9999C27.1666 32.9126 25.7021 34.4832 23.8333 34.6516V44.3332C23.8333 44.8249 23.7365 45.2939 23.561 45.7223ZM27.1666 23.1324C27.5879 23.263 28.0357 23.3333 28.5 23.3333C30.9853 23.3333 33 21.3185 33 18.8333C33 16.3479 30.9853 14.3333 28.5 14.3333C27.3026 14.3333 26.2146 14.8008 25.4083 15.5634C26.4916 16.5955 27.1666 18.0522 27.1666 19.6665V23.1324ZM24.4199 16.9326C24.4199 16.9326 24.4199 16.9326 24.4199 16.9326C24.5622 17.0846 24.6929 17.2477 24.8103 17.4205C24.6929 17.2477 24.5622 17.0846 24.4199 16.9326ZM25.5 24.3333L25.5 30.9999L25.5 30.9999V24.3333ZM25.5 22.1874V19.6666L25.5 19.6665V22.1874C25.5 22.1874 25.5 22.1874 25.5 22.1874Z" fill="#333333"/>
</svg>
