<svg width="17" height="44" viewBox="0 0 17 44" fill="none" xmlns="http://www.w3.org/2000/svg">
<path d="M8.08337 0.666748C11.0289 0.666748 13.4167 3.05458 13.4167 6.00008C13.4167 8.94558 11.0289 11.3334 8.08337 11.3334C5.13787 11.3334 2.75004 8.94558 2.75004 6.00008C2.75004 3.05458 5.13787 0.666748 8.08337 0.666748ZM12.0834 12.6667H11.1367C9.24412 13.537 7.00421 13.5746 5.03004 12.6667H4.08337C1.87421 12.6667 0.083374 14.4576 0.083374 16.6667V28.0001C0.083374 29.1047 0.978791 30.0001 2.08337 30.0001H3.41671V41.3334C3.41671 42.438 4.31212 43.3334 5.41671 43.3334H10.75C11.8546 43.3334 12.75 42.438 12.75 41.3334V30.0001H14.0834C15.188 30.0001 16.0834 29.1047 16.0834 28.0001V16.6667C16.0834 14.4576 14.2925 12.6667 12.0834 12.6667Z" fill="#333333"/>
</svg>
